<?xml version="1.0" encoding="UTF-8"?>
<svg id="Layer_1" data-name="Layer 1" xmlns="http://www.w3.org/2000/svg" xmlns:xlink="http://www.w3.org/1999/xlink" viewBox="0 0 269.29 54.62">
  <defs>
    <style>
      .cls-1 {
        fill: none;
      }

      .cls-2 {
        fill: #2e2a26;
      }

      .cls-3 {
        clip-path: url(#clippath-1);
      }

      .cls-4 {
        clip-path: url(#clippath);
      }
    </style>
    <clipPath id="clippath">
      <rect class="cls-1" x="0" y="0" width="269.29" height="54.62"/>
    </clipPath>
    <clipPath id="clippath-1">
      <rect class="cls-1" x="0" y="0" width="269.29" height="54.62"/>
    </clipPath>
  </defs>
  <g id="fsl_lg_4c_pms_black_c">
    <g class="cls-4">
      <g class="cls-3">
        <path class="cls-2" d="M33.08.76H.56C.25.76,0,.99,0,1.29v52.04C0,53.63.25,53.86.56,53.86h9.54c.31,0,.56-.24.56-.53v-22.83c0-.29.25-.53.55-.53h14.22c.31,0,.56-.24.56-.53v-8.04c0-.29-.25-.53-.56-.53h-14.22c-.31,0-.55-.24-.55-.53v-9.93c0-.29.25-.53.55-.53h21.87c.31,0,.55-.24.55-.53V1.29c0-.3-.25-.53-.55-.53M68.43,0c-15.38,0-25.98,12.21-25.98,27.31s10.61,27.31,25.98,27.31,25.98-12.21,25.98-27.31S83.81,0,68.43,0M68.43,45.52c-9.4,0-15.95-8.19-15.95-18.21s6.56-18.21,15.95-18.21,15.95,8.19,15.95,18.21-6.56,18.21-15.95,18.21M219.19.76h-9.6c-.29,0-.53.22-.53.5v52.1c0,.28.23.5.53.5h9.6c.29,0,.52-.22.52-.5V1.26c0-.28-.23-.5-.52-.5M268.71,44.76h-17.18c-.32,0-.58-.25-.58-.56V1.32c0-.31-.26-.56-.59-.56h-9.49c-.32,0-.58.25-.58.56v51.98c0,.31.26.56.58.56h27.84c.32,0,.58-.25.58-.56v-7.98c0-.31-.26-.56-.58-.56M116.96,14.87c0-4.1,4.5-5.76,8.52-5.76,3.47,0,7.01,1.39,9.25,3.23.17.14.41.11.54-.06l5.08-6.97c.12-.16.08-.39-.09-.51-5.11-3.55-10.22-4.79-15.72-4.79-9.15,0-18.23,5.46-18.23,14.94,0,5.99,3.47,9.63,7.81,12.06,7.42,4.17,17.68,5.01,17.68,11.84,0,3.87-3.32,6.68-8.05,6.68s-9.55-2.34-12.71-5.52c-.16-.16-.43-.14-.56.04l-5.32,7.3c-.11.15-.08.37.07.49,5.39,4.28,11.72,6.79,18.52,6.79,9.94,0,18.7-6.52,18.7-15.93,0-17.9-25.49-15.25-25.49-23.82M166.01,14.87c0-4.1,4.5-5.76,8.52-5.76,3.39,0,6.84,1.32,9.08,3.1.26.2.63.16.82-.1l4.84-6.65c.18-.25.12-.6-.14-.77-5.06-3.47-10.12-4.68-15.56-4.68-9.16,0-18.23,5.46-18.23,14.94,0,5.99,3.47,9.63,7.81,12.06,7.42,4.17,17.68,5.01,17.68,11.84,0,3.87-3.32,6.68-8.05,6.68s-9.39-2.27-12.54-5.35c-.25-.25-.66-.22-.86.06l-5.08,6.97c-.17.23-.13.56.1.75,5.36,4.21,11.63,6.68,18.38,6.68,9.95,0,18.71-6.52,18.71-15.93,0-17.9-25.49-15.25-25.49-23.82"/>
      </g>
    </g>
  </g>
</svg>