<?xml version="1.0" encoding="UTF-8"?>
<svg id="Layer_1" xmlns="http://www.w3.org/2000/svg" version="1.1" viewBox="0 0 550 550">
  <!-- Generator: Adobe Illustrator 29.4.0, SVG Export Plug-In . SVG Version: 2.1.0 Build 152)  -->
  <defs>
    <style>
      .st0 {
        fill: #fcb116;
      }

      .st1 {
        fill: #103f6b;
      }

      .st2 {
        fill: #fff;
      }

      .st3 {
        fill: #ce202e;
      }
    </style>
  </defs>
  <ellipse class="st1" cx="275" cy="275" rx="262.38" ry="149.93"/>
  <g>
    <path class="st3" d="M58.46,216.69c10.98-12.68,25.57-24.51,43.49-35.05,46-27.08,107.45-41.99,173.05-41.99s127.06,14.91,173.05,41.99c17.91,10.55,32.51,22.37,43.49,35.05h16.12c-12.24-15.13-29.3-29.13-50.75-41.38-48.47-27.7-113.08-42.95-181.91-42.95s-133.44,15.25-181.91,42.95c-21.45,12.25-38.51,26.25-50.75,41.38h16.12Z"/>
    <path class="st3" d="M491.54,333.31c-10.98,12.68-25.57,24.51-43.49,35.05-46,27.08-107.45,41.99-173.05,41.99s-127.06-14.91-173.05-41.99c-17.91-10.55-32.51-22.37-43.49-35.05h-16.12c12.24,15.13,29.3,29.13,50.75,41.38,48.47,27.7,113.08,42.95,181.91,42.95s133.44-15.25,181.91-42.95c21.45-12.25,38.51-26.25,50.75-41.38h-16.12Z"/>
  </g>
  <g>
    <path class="st0" d="M481.69,216.69c-9.87-10.29-22.38-19.97-37.33-28.77-44.89-26.43-105.04-40.99-169.36-40.99s-124.46,14.56-169.36,40.99c-14.95,8.8-27.46,18.48-37.33,28.77h413.38Z"/>
    <path class="st0" d="M68.31,333.31c9.87,10.29,22.38,19.97,37.33,28.77,44.89,26.43,105.04,40.99,169.36,40.99s124.46-14.56,169.36-40.99c14.95-8.8,27.46-18.48,37.33-28.77H68.31Z"/>
  </g>
  <g>
    <path class="st1" d="M296.5,396.81l21.5-28.32-21.5-28.32-8.65,11.4c-.52-.12-1.05-.24-1.58-.35l-11.27-12.38-11.27,12.38c-.53.11-1.06.23-1.58.35l-8.65-11.4-21.5,28.32,21.5,28.32,8.65-11.4c.52.12,1.05.24,1.58.35l11.27,12.38,11.27-12.38c.53-.11,1.06-.23,1.58-.35l8.65,11.4ZM287.43,367.57c-.09-2.59-.54-5.03-1.28-7.24,2.42-.16,4.78-.38,7.06-.64,1.88,2.31,3.05,4.99,3.25,7.88h-9.03ZM296.47,369.4c-.2,2.88-1.37,5.57-3.25,7.87-2.28-.26-4.64-.48-7.06-.64.74-2.2,1.19-4.65,1.28-7.23h9.03ZM295.3,359.44c1.63-.21,3.21-.46,4.75-.72,3.44,2.51,5.6,5.56,5.93,8.85h-7.69c-.18-2.94-1.25-5.71-3-8.13h.01ZM293.92,357.75c-1.45-1.58-3.22-2.98-5.22-4.13,3.41.9,6.46,2.12,9.02,3.59-1.24.19-2.51.37-3.8.54h0ZM291.65,358.01c-2.01.22-4.08.4-6.18.53-1.05-2.41-2.47-4.44-4.15-5.9,4.1.97,7.68,2.87,10.33,5.37ZM283.55,358.66c-2.5.13-5.05.21-7.64.22v-6.9c3.13.42,5.87,2.95,7.64,6.68ZM284.29,360.46c.76,2.13,1.23,4.55,1.32,7.12h-9.7v-6.87c2.86,0,5.66-.1,8.38-.25ZM285.61,369.4c-.09,2.57-.56,4.99-1.32,7.12-2.72-.15-5.52-.23-8.38-.25v-6.87h9.7ZM283.55,378.31c-1.77,3.73-4.51,6.26-7.64,6.68v-6.9c2.59,0,5.14.09,7.64.22h0ZM285.47,378.42c2.11.14,4.17.32,6.18.53-2.65,2.5-6.23,4.39-10.33,5.37,1.67-1.46,3.1-3.49,4.15-5.9ZM293.92,379.22c1.29.16,2.56.34,3.8.54-2.56,1.47-5.61,2.69-9.02,3.59,2-1.15,3.77-2.54,5.22-4.13ZM295.3,377.53c1.74-2.42,2.81-5.19,2.99-8.13h7.69c-.34,3.3-2.49,6.34-5.93,8.85-1.54-.26-3.12-.51-4.75-.72ZM262.57,367.57h-9.03c.2-2.88,1.37-5.57,3.25-7.88,2.28.26,4.64.48,7.06.64-.74,2.2-1.19,4.65-1.28,7.24ZM263.84,376.63c-2.42.16-4.78.38-7.06.64-1.88-2.31-3.05-4.99-3.25-7.87h9.03c.09,2.59.54,5.03,1.28,7.23ZM258.35,358.01c2.65-2.5,6.23-4.39,10.33-5.37-1.67,1.46-3.1,3.49-4.15,5.9-2.11-.14-4.17-.32-6.18-.53h0ZM256.08,357.75c-1.29-.16-2.56-.34-3.8-.54,2.56-1.47,5.61-2.69,9.02-3.59-2,1.15-3.77,2.54-5.22,4.13h0ZM254.7,359.44c-1.74,2.42-2.81,5.19-3,8.13h-7.69c.34-3.3,2.49-6.34,5.93-8.85,1.54.26,3.12.51,4.75.72h.01ZM251.71,369.4c.18,2.94,1.25,5.71,3,8.13-1.63.21-3.21.46-4.75.72-3.44-2.51-5.6-5.55-5.93-8.85h7.69-.01ZM256.08,379.22c1.45,1.59,3.22,2.98,5.22,4.13-3.41-.9-6.46-2.12-9.02-3.59,1.24-.19,2.51-.37,3.8-.54h0ZM258.35,378.96c2.01-.22,4.08-.4,6.18-.53,1.05,2.41,2.48,4.44,4.15,5.9-4.1-.97-7.68-2.87-10.33-5.37h0ZM266.45,378.31c2.5-.13,5.05-.21,7.64-.22v6.9c-3.13-.42-5.87-2.95-7.64-6.68h0ZM265.71,376.51c-.76-2.13-1.23-4.55-1.32-7.12h9.7v6.87c-2.86.02-5.66.1-8.38.25ZM264.39,367.57c.09-2.57.56-4.99,1.32-7.12,2.72.15,5.52.23,8.38.25v6.87h-9.7ZM266.45,358.66c1.77-3.73,4.51-6.26,7.64-6.68v6.9c-2.59,0-5.14-.09-7.64-.22Z"/>
    <g>
      <path class="st3" d="M242.14,368.49c0-7.17,7.37-13.39,18.1-16.43l-6.75-8.88-19.22,25.31,19.22,25.31,6.75-8.88c-10.72-3.03-18.1-9.25-18.1-16.43h0Z"/>
      <path class="st3" d="M296.5,343.18l-6.75,8.88c10.72,3.03,18.1,9.25,18.1,16.43s-7.37,13.39-18.1,16.43l6.75,8.88,19.22-25.31-19.22-25.31h0Z"/>
    </g>
  </g>
  <g>
    <path class="st1" d="M253.84,164.63c-.08-1.48-1.09-1.94-3.21-1.81h0c-.03-.49-.06-.98-.1-1.47,4.47-.29,8.95-.5,13.43-.63,0,.49.03.98.04,1.48-2.12.06-3.08.62-3.02,2.1.02.55.39,10.53.42,11.19.06,1.49,1.01,1.96,3.05,1.9,0,.49.03.98.04,1.48-4.27.12-8.53.32-12.79.6-.03-.49-.06-.98-.1-1.47h0c2.03-.13,2.94-.69,2.86-2.18,0-.25-.26-4.62-.26-4.61-3.2.18-6.4.4-9.59.67,0,0,.33,3.95.38,4.61.12,1.48,1.1,1.91,3.13,1.76.04.49.07.98.11,1.47-4.39.33-8.77.73-13.15,1.22-.05-.49-.11-.98-.16-1.47.13,0,.26-.03.39-.04,2.03-.22,2.91-.82,2.76-2.3-.04-.36-1.08-10.59-1.13-11.14-.15-1.48-1.17-1.89-3.29-1.66-.14,0-.27.03-.41.04-.05-.49-.11-.98-.16-1.47,4.6-.51,9.2-.94,13.81-1.28.04.49.07.98.11,1.47-2.12.16-3.05.76-2.93,2.23.04.48.35,4.19.35,4.19,3.22-.27,6.44-.49,9.66-.67,0,0-.21-3.74-.24-4.2h0Z"/>
    <path class="st1" d="M296.71,179.36c.12-2.03.24-4.05.37-6.08-.56-.03-1.12-.07-1.67-.1-2.23,3.38-6.72,4.29-8.88,4.23-.81-.03-1.62-.05-2.44-.07-1.4-.04-2-.43-1.99-1.26.04-1.91.08-3.83.11-5.74,3.89.08,4.83,1.69,5.24,3.17.53.02,1.05.04,1.57.06.09-2.45.19-4.9.28-7.35-.54-.02-1.07-.04-1.61-.06-.47,1.29-1.64,2.76-5.46,2.68.03-1.79.07-3.57.1-5.36.02-1.11.62-1.36,3.08-1.3,3,.08,4.96.6,6.9,1.83,1.26.81,2.2,1.83,2.83,3.1.57.03,1.13.06,1.7.1.12-2,.23-4,.35-6-8.51-.5-17.03-.71-25.54-.64,0,.49,0,.99.01,1.48h.41c2.12-.02,3.1.5,3.1,1.99v11.2c0,1.49-.94,1.99-2.98,2.01h-.39c0,.49,0,.99.01,1.48,8.3-.07,16.6.14,24.89.64h.01Z"/>
    <path class="st1" d="M306.74,176.61c-.13,1.48-1.11,1.91-3.14,1.74-.13,0-.26-.02-.39-.03-.04.49-.08.98-.12,1.47,3.08.24,6.16.52,9.23.84.05-.49.1-.98.15-1.47-.18-.02-.35-.04-.53-.05-2.03-.21-2.91-.8-2.78-2.28.29-3.03.58-6.07.87-9.1,4.4,4.7,8.62,9.48,12.68,14.32,1.61.22,3.23.44,4.84.68.72-4.9,1.44-9.8,2.16-14.7.21-1.47,1.26-1.84,3.36-1.51.08-.49.15-.97.23-1.46-3.03-.47-6.06-.91-9.1-1.3-.06.49-.13.98-.19,1.46.13.02.27.04.4.05,2.11.28,3.01.93,2.8,2.4-.07.52-1.16,8.16-1.16,8.16-3.8-4.48-7.74-8.9-11.83-13.25-3.23-.34-6.47-.63-9.71-.88-.04.49-.08.98-.12,1.47.05,0,.09,0,.14,0,1.86.14,3.23,1.68,3.08,3.42-.07.83-.87,9.91-.88,10h.01Z"/>
    <path class="st1" d="M366.41,190.47c.12-.48.25-.95.37-1.43.13.03.25.07.38.1,1.99.52,3.03.28,3.42-1.15.17-.62,2.71-9.98,2.94-10.8.39-1.43-.42-2.19-2.49-2.74-.13-.03-.26-.07-.4-.1.12-.48.25-.95.37-1.43,4.64,1.21,9.25,2.52,13.85,3.91-.14.47-.29.94-.43,1.41-.13-.04-.26-.08-.39-.12-2.06-.62-3.15-.4-3.56,1.03-.24.82-2.96,10.13-3.14,10.75-.42,1.43.35,2.18,2.32,2.77.13.04.25.08.38.11-.14.47-.29.94-.43,1.41-4.38-1.33-8.78-2.57-13.19-3.72h0Z"/>
    <path class="st1" d="M408.94,192.55c.85-2.19,1.69-4.38,2.54-6.57-.51-.2-1.02-.39-1.53-.59-.95.33-1.41.4-2.37.52-1.55-1.96-3.04-3.14-5.49-4.01-4.99-1.79-11.85-.58-13.99,5.45-2.25,6.29,1.5,10.58,7.49,12.71,5.2,1.85,9.88.86,11.77-2.56-.48-.19-.96-.37-1.44-.55-1.3,1.88-4.69,3.33-8.26,2.04-2.41-.87-4.13-1.86-2.58-6.35.61-1.77,1.22-3.53,1.83-5.3,1.17-3.4,2.84-4.45,5.56-3.48,2.87,1.02,5.97,4.78,5.4,8.3.36.14.71.27,1.07.41v-.02Z"/>
    <path class="st1" d="M167.04,191.73c-4.27-3.91-8.64-7.75-13.12-11.51-1.02.34-2.05.7-3.07,1.05-1.25,5.27-2.4,10.53-3.43,15.79-.51,2.5-1.92,3.97-3.22,4.47.19.5.38.99.58,1.49,2.86-1.11,5.74-2.18,8.62-3.21-.17-.48-.35-.97-.52-1.45-1.47.53-2.56.42-3.24.09.17-.86.35-1.73.53-2.59,2.82-1.03,5.66-2.02,8.5-2.97,0,0,2.48,2.21,2.5,2.24-.15.33-.75.69-1.82,1.05.16.47.31.93.47,1.4,3.93-1.32,7.87-2.58,11.84-3.76-.14-.48-.29-.96-.43-1.44-1.54.46-3.03.43-4.18-.65h0ZM150.63,193.62c.45-2.15.93-4.29,1.42-6.44,1.66,1.4,3.3,2.81,4.93,4.22-2.12.72-4.24,1.46-6.35,2.22h0Z"/>
    <path class="st1" d="M220.62,179.31c.22,1.47,1.23,1.84,3.25,1.54.13-.02.26-.04.39-.05.07.49.14.98.21,1.46-4.49.63-8.98,1.35-13.45,2.16-.09-.48-.17-.97-.26-1.45.13-.02.26-.05.39-.07,2.01-.36,2.85-1.02,2.6-2.48-.08-.45-1.98-11.59-2.05-12.01-.12-.71-.62-.92-1.88-.7-3.77.66-4.55,3.42-4.75,5.47-.54.1-1.08.21-1.62.31-.34-1.74-.68-3.47-1.02-5.21-.04-.23-.09-.46-.13-.69,8.35-1.63,16.75-2.98,25.17-4.04.03.23.06.46.09.7.22,1.75.44,3.51.67,5.26-.56.07-1.13.14-1.69.22-1-2.06-2.63-4.23-6.34-3.69-1.13.17-1.45.48-1.38,1.25.09.62,1.59,10.56,1.81,12.02h0Z"/>
    <path class="st1" d="M352.19,183.5c-.31,1.45.5,2.15,2.5,2.6.13.03.26.06.38.09-.11.48-.22.96-.33,1.44-4.44-1.01-8.9-1.93-13.36-2.76.09-.48.18-.97.27-1.45.13.02.26.05.39.07,2.01.38,3.03.06,3.32-1.4.09-.45,2.27-11.54,2.35-11.96.14-.71-.25-1.08-1.51-1.32-3.76-.72-5.47,1.58-6.39,3.43-.54-.1-1.08-.19-1.62-.28.3-1.74.6-3.49.9-5.23.04-.23.08-.46.12-.69,8.38,1.44,16.72,3.16,25.01,5.17-.05.23-.11.45-.16.68-.42,1.72-.83,3.44-1.25,5.16-.55-.13-1.11-.27-1.66-.4-.21-2.28-.96-4.89-4.63-5.71-1.12-.25-1.53-.07-1.74.68-.13.61-2.26,10.43-2.58,11.88h-.01Z"/>
    <path class="st1" d="M183.89,171.67c.12.48.24.96.36,1.43,2.08-.51,3.15-.24,3.5,1.21.05.2,2.09,8.77,2.13,8.93.67,2.81-.44,4.67-3.58,5.46-3.13.8-5-.32-5.75-3.1-.04-.16-2.31-8.67-2.37-8.87-.38-1.43.43-2.19,2.51-2.72l-.37-1.43c-4.6,1.19-9.19,2.46-13.76,3.83.14.47.28.94.42,1.42.23-.07.45-.14.68-.2,2.06-.61,3.15-.38,3.56,1.04.81,2.83,1.63,5.65,2.44,8.48,1.34,4.61,6.15,4.86,13.03,3.12,6.87-1.73,10.96-4.23,9.95-8.93-.63-2.87-1.26-5.75-1.88-8.62-.32-1.45.53-2.17,2.62-2.61.13-.03.27-.06.4-.08-.1-.48-.2-.96-.3-1.45-4.54.95-9.07,1.98-13.59,3.1h0Z"/>
  </g>
  <g>
    <g>
      <rect class="st2" x="391.3" y="234.58" width="22.64" height="80.85"/>
      <polygon class="st2" points="460.14 300.52 460.14 234.58 438.56 234.58 438.56 315.43 439.08 315.43 490.16 315.43 494.72 300.52 460.14 300.52"/>
      <polygon class="st2" points="63.34 315.43 85.98 315.43 85.98 284.93 116.68 284.93 116.68 270.21 85.98 270.21 85.98 249.5 121.13 249.5 125.68 234.58 63.34 234.58 63.34 315.43"/>
      <path class="st2" d="M174.2,232.91c-12.9,0-22.94,3.73-29.82,11.08-6.77,7.24-10.21,17.67-10.21,31.01s3.43,23.77,10.21,31.01c6.88,7.35,16.91,11.08,29.82,11.08s22.94-3.73,29.82-11.08c6.77-7.24,10.21-17.67,10.21-31.01s-3.43-23.77-10.21-31.01c-6.88-7.35-16.91-11.08-29.82-11.08h0ZM193.1,274.99c0,9.29-1.37,15.95-4.2,20.35-3.03,4.72-7.84,7.01-14.7,7.01s-11.67-2.29-14.7-7.01c-2.82-4.4-4.2-11.05-4.2-20.35s1.37-15.95,4.2-20.35c3.03-4.72,7.84-7.01,14.7-7.01s11.67,2.29,14.7,7.01c2.82,4.4,4.2,11.05,4.2,20.35Z"/>
      <path class="st2" d="M289,237.75l-4.58,15.05c-1.48-.59-3.7-1.34-9.42-3.01-2.79-.82-10.97-2.46-15.95-2.32-5.31.14-8.4,1.77-9.44,4.97-.27.84-.97,3.99,1.4,6.59,2.71,2.96,7.6,4.46,13.26,6.19,3.19.97,8.83,2.79,10.72,3.65,13.15,5.98,17.48,12.83,17.48,23.05,0,7.52-2.19,13.48-6.51,17.73-2.11,2.07-4.72,3.86-10.97,6.08-1.96.7-8.38,1.63-13.78,1.63-11.29,0-22.37-1.65-33.37-5.12l4.8-15.7c7.45,2.42,19.11,5.94,27.43,5.82,8.8-.13,12.41-2.54,12.95-8.24.6-6.36-5.55-8.49-14.29-10.8-8.73-2.31-15.91-4.54-22.28-10.3-4.88-4.42-7.35-9.69-7.35-15.67,0-7.29,2.02-12.64,6.32-16.85,5.25-5.13,13.99-7.85,25.28-7.85,5.25,0,11.86.77,14.3,1.32,7.23,1.61,10.89,2.7,14,3.78h0Z"/>
      <path class="st2" d="M369.04,237.75l-4.58,15.05c-1.48-.59-3.7-1.34-9.42-3.01-2.79-.82-10.97-2.46-15.95-2.32-5.31.14-8.4,1.77-9.44,4.97-.27.84-.97,3.99,1.4,6.59,2.71,2.96,7.6,4.46,13.26,6.19,3.19.97,8.83,2.79,10.72,3.65,13.15,5.98,17.48,12.83,17.48,23.05,0,7.52-2.19,13.48-6.51,17.73-2.11,2.07-4.72,3.86-10.97,6.08-1.96.7-8.38,1.63-13.78,1.63-11.29,0-22.37-1.65-33.37-5.12l4.8-15.7c7.45,2.42,19.11,5.94,27.43,5.82,8.8-.13,12.41-2.54,12.95-8.24.6-6.36-5.55-8.49-14.29-10.8-8.73-2.31-15.91-4.54-22.28-10.3-4.88-4.42-7.35-9.69-7.35-15.67,0-7.29,2.02-12.64,6.32-16.85,5.25-5.13,13.99-7.85,25.28-7.85,5.25,0,11.86.77,14.3,1.32,7.23,1.61,10.89,2.7,14,3.78h0Z"/>
    </g>
    <path class="st2" d="M482.75,246.97c-3.38,0-6.11-2.71-6.11-6.06s2.74-6.06,6.11-6.06,6.11,2.71,6.11,6.06-2.74,6.06-6.11,6.06ZM482.75,235.97c-2.74,0-4.9,2.17-4.9,4.94s2.16,4.93,4.9,4.93,4.88-2.17,4.88-4.93-2.14-4.94-4.88-4.94ZM484.03,244.17l-1.35-2.59h-.84v2.59h-1.22v-6.54h2.48c1.25,0,2.13.92,2.13,2.01,0,.92-.57,1.52-1.3,1.77l1.47,2.76h-1.37ZM482.95,238.65h-1.11v1.97h1.11c.64,0,1.08-.44,1.08-.99s-.44-.99-1.08-.99h0Z"/>
  </g>
</svg>